<svg width="20" height="14" viewBox="0 0 20 14" fill="none" xmlns="http://www.w3.org/2000/svg">
<path fill-rule="evenodd" clip-rule="evenodd" d="M1.04444 0H18.9556C19.5324 0 20 0.467614 20 1.04444V1.17778C20 1.75461 19.5324 2.22222 18.9556 2.22222H1.04444C0.467614 2.22222 0 1.75461 0 1.17778V1.04444C0 0.467614 0.467614 0 1.04444 0ZM2.22222 6.66667C2.22222 7.28032 1.72476 7.77778 1.11111 7.77778C0.497461 7.77778 0 7.28032 0 6.66667C0 6.05302 0.497461 5.55556 1.11111 5.55556C1.72476 5.55556 2.22222 6.05302 2.22222 6.66667ZM5.48889 5.55556H18.9556C19.5324 5.55556 20 6.02317 20 6.6V6.73333C20 7.31016 19.5324 7.77778 18.9556 7.77778H5.48889C4.91206 7.77778 4.44444 7.31016 4.44444 6.73333V6.6C4.44444 6.02317 4.91206 5.55556 5.48889 5.55556ZM18.9556 11.1111H1.04444C0.467614 11.1111 0 11.5787 0 12.1556V12.2889C0 12.8657 0.467614 13.3333 1.04444 13.3333H18.9556C19.5324 13.3333 20 12.8657 20 12.2889V12.1556C20 11.5787 19.5324 11.1111 18.9556 11.1111Z" fill="#0B8C7C"/>
</svg>
