<svg width="20" height="20" viewBox="0 0 20 20" fill="none" xmlns="http://www.w3.org/2000/svg">
<path d="M3.68057 12.9741C4.59867 12.9715 5.48205 12.6401 6.15465 12.046L12.7256 15.6159C12.5055 16.4339 12.6025 17.2999 12.999 18.0555C13.3955 18.811 14.065 19.4054 14.8848 19.73C15.7046 20.0546 16.6199 20.0876 17.4632 19.823C18.3065 19.5583 19.0213 19.0137 19.4769 18.2889C19.9324 17.5641 20.0981 16.7076 19.9437 15.8761C19.7893 15.0446 19.3251 14.2938 18.6361 13.7611C17.947 13.2284 17.0793 12.9495 16.1917 12.9755C15.304 13.0014 14.4559 13.3304 13.8026 13.9023L7.23162 10.3323C7.3009 10.0828 7.33869 9.82434 7.34499 9.56585L13.8005 6.05776C14.4221 6.59547 15.2193 6.91357 16.0583 6.9587C16.8973 7.00382 17.7271 6.77322 18.4085 6.30558C19.0899 5.83795 19.5815 5.16172 19.8007 4.39036C20.0199 3.619 19.9534 2.79943 19.6124 2.06915C19.2714 1.33886 18.6766 0.7423 17.9278 0.379538C17.1791 0.0167753 16.3219 -0.0901147 15.5001 0.0768C14.6782 0.243715 13.9418 0.674279 13.4143 1.29626C12.8867 1.91824 12.6002 2.69379 12.6028 3.49281C12.607 3.78024 12.6479 4.06668 12.7256 4.34413L6.75927 7.58475C6.41327 7.07581 5.93397 6.66122 5.36846 6.38169C4.80296 6.10217 4.17069 5.96734 3.5338 5.99044C2.8969 6.01354 2.27728 6.19379 1.73582 6.51347C1.19435 6.83315 0.749676 7.28127 0.44547 7.81379C0.141265 8.34631 -0.0119999 8.94492 0.000733402 9.55081C0.0134667 10.1567 0.19176 10.749 0.518097 11.2695C0.844433 11.7901 1.30759 12.221 1.86205 12.5198C2.41651 12.8187 3.04321 12.9752 3.68057 12.9741Z" fill="#0B8C7C"/>
</svg>
